<?xml version="1.0" standalone="no"?>
<!DOCTYPE svg PUBLIC "-//W3C//DTD SVG 20010904//EN"
 "http://www.w3.org/TR/2001/REC-SVG-20010904/DTD/svg10.dtd">
<svg version="1.0" xmlns="http://www.w3.org/2000/svg"
 width="500.000000pt" height="500.000000pt" viewBox="0 0 500.000000 500.000000"
 preserveAspectRatio="xMidYMid meet">

<g transform="translate(0.000000,500.000000) scale(0.100000,-0.100000)"
fill="#000000" stroke="none">
<path d="M1588 4730 c-238 -50 -436 -156 -627 -336 -369 -347 -562 -762 -638
-1374 -22 -177 -25 -735 -5 -920 52 -477 146 -790 334 -1108 49 -83 87 -130
173 -217 351 -354 815 -492 1380 -410 511 74 894 361 1165 874 l34 64 13 -30
c6 -17 60 -182 118 -367 140 -448 179 -523 308 -586 220 -107 435 -28 619 227
110 153 178 308 218 496 22 103 47 365 37 391 -6 14 -20 16 -104 14 l-98 -3
-26 -105 c-38 -155 -66 -232 -109 -298 -66 -103 -142 -144 -270 -145 -224 -3
-357 145 -482 538 -25 77 -53 172 -63 211 l-18 70 41 105 c48 124 101 320 138
514 14 77 134 618 265 1201 131 584 239 1067 239 1073 0 8 -109 11 -377 11
l-378 0 -134 -643 c-74 -353 -136 -646 -139 -651 -3 -4 -42 88 -87 205 -202
522 -314 730 -481 895 -176 173 -329 265 -514 309 -97 22 -416 20 -532 -5z
m498 -334 c133 -35 287 -149 421 -309 204 -245 328 -511 493 -1057 l62 -204
-37 -293 c-104 -832 -346 -1478 -653 -1746 -130 -113 -232 -156 -393 -164
-127 -7 -183 4 -294 58 -143 68 -238 173 -330 364 -120 247 -187 575 -216
1050 -13 215 -7 828 10 995 63 620 191 982 419 1183 103 92 222 135 372 136
52 0 118 -5 146 -13z"/>
</g>
</svg>
